<svg xmlns="http://www.w3.org/2000/svg" fill="none" viewBox="0 0 32 32"><rect width="19.938" height="27.922" x="6.031" y="2.035" fill="url(#svg-d8c3bd49-ea81-4c87-b714-d173aeabdad2-a)" rx="2.6"/><rect width="19.938" height="27.922" x="6.031" y="2.035" fill="url(#svg-07001de7-df45-4a8c-b6a3-4514d8dbbd55-b)" rx="2.6"/><g filter="url(#svg-fd397105-7edf-469a-b3ae-cd08603bf9a8-c)"><path fill="#ff9544" d="M9.203 9.08a.6.6 0 0 1 .6-.6h2.113a.6.6 0 0 1 .6.6v2.113a.6.6 0 0 1-.6.6H9.803a.6.6 0 0 1-.6-.6z"/><path fill="url(#svg-1abd0126-9279-432f-ad08-b1768879df96-d)" d="M9.203 9.08a.6.6 0 0 1 .6-.6h2.113a.6.6 0 0 1 .6.6v2.113a.6.6 0 0 1-.6.6H9.803a.6.6 0 0 1-.6-.6z"/></g><g filter="url(#svg-41039080-4202-4390-b713-fd7ec6f80956-e)"><path fill="#38c6ff" d="M14.344 9.08a.6.6 0 0 1 .6-.6h2.112a.6.6 0 0 1 .6.6v2.113a.6.6 0 0 1-.6.6h-2.112a.6.6 0 0 1-.6-.6z"/></g><g filter="url(#svg-e9d5c4aa-b5ff-41e9-a52e-7b5a52ab08c8-f)"><path fill="#ffec58" d="M19.484 9.08a.6.6 0 0 1 .6-.6h2.113a.6.6 0 0 1 .6.6v2.113a.6.6 0 0 1-.6.6h-2.113a.6.6 0 0 1-.6-.6z"/></g><g filter="url(#svg-4d4326a5-81c8-4219-b2b9-78a8a11f8435-g)"><path fill="#38c6ff" d="M9.203 14.94a.6.6 0 0 1 .6-.6h2.113a.6.6 0 0 1 .6.6v2.112a.6.6 0 0 1-.6.6H9.803a.6.6 0 0 1-.6-.6z"/></g><g filter="url(#svg-0bd2e150-9dd6-4e02-863c-bb1382d7959b-h)"><path fill="#ff9544" d="M9.203 20.799a.6.6 0 0 1 .6-.6h2.113a.6.6 0 0 1 .6.6v2.112a.6.6 0 0 1-.6.6H9.803a.6.6 0 0 1-.6-.6z"/><path fill="url(#svg-2e0db3e3-2cf3-4d43-b763-5d5928eb1454-i)" d="M9.203 20.799a.6.6 0 0 1 .6-.6h2.113a.6.6 0 0 1 .6.6v2.112a.6.6 0 0 1-.6.6H9.803a.6.6 0 0 1-.6-.6z"/></g><g filter="url(#svg-1e5d6669-fedb-4bab-a067-461b83f54bf4-j)"><path fill="#ffec58" d="M14.344 14.94a.6.6 0 0 1 .6-.6h2.112a.6.6 0 0 1 .6.6v2.112a.6.6 0 0 1-.6.6h-2.112a.6.6 0 0 1-.6-.6z"/></g><g filter="url(#svg-d493301f-f5ba-4751-8dc3-c9f1b6c4a82c-k)"><path fill="#38c6ff" d="M14.344 20.799a.6.6 0 0 1 .6-.6h2.112a.6.6 0 0 1 .6.6v2.112a.6.6 0 0 1-.6.6h-2.112a.6.6 0 0 1-.6-.6z"/></g><g filter="url(#svg-0557ccd3-120c-40eb-9a63-f80e5ca44c6a-l)"><path fill="#ff9544" d="M19.484 14.94a.6.6 0 0 1 .6-.6h2.113a.6.6 0 0 1 .6.6v2.112a.6.6 0 0 1-.6.6h-2.113a.6.6 0 0 1-.6-.6z"/><path fill="url(#svg-f6df61d2-fd45-4900-b5ed-9d68afa2d729-m)" d="M19.484 14.94a.6.6 0 0 1 .6-.6h2.113a.6.6 0 0 1 .6.6v2.112a.6.6 0 0 1-.6.6h-2.113a.6.6 0 0 1-.6-.6z"/></g><g filter="url(#svg-4fe3aecc-ccf6-4649-bd49-8f4b0229807f-n)"><path fill="#ffec58" d="M19.484 20.799a.6.6 0 0 1 .6-.6h2.113a.6.6 0 0 1 .6.6v2.112a.6.6 0 0 1-.6.6h-2.113a.6.6 0 0 1-.6-.6z"/></g><g filter="url(#svg-5aa426ba-9d39-4dcb-b66a-6ebd848989e6-o)"><path fill="url(#svg-efc6f1ef-70e6-46db-b8a1-c85217505839-p)" d="M23.688 5.597h1.531v21.844h-1.531z"/></g><g filter="url(#svg-180cd2f8-be32-413c-8f8e-ea6ade62336b-q)"><path fill="url(#svg-62a076f6-79f8-4f10-a445-5da4df23a7fe-r)" d="M25.969 6.16H6.03V4.635a2.6 2.6 0 0 1 2.6-2.6H23.37a2.6 2.6 0 0 1 2.6 2.6z"/><path fill="url(#svg-3e8f3333-46e7-4506-a0ab-d87923a8f138-s)" d="M25.969 6.16H6.03V4.635a2.6 2.6 0 0 1 2.6-2.6H23.37a2.6 2.6 0 0 1 2.6 2.6z"/><path fill="url(#svg-a9709a3d-1e58-4889-9f84-ade370f056fe-t)" d="M25.969 6.16H6.03V4.635a2.6 2.6 0 0 1 2.6-2.6H23.37a2.6 2.6 0 0 1 2.6 2.6z"/><path fill="url(#svg-1162d2b4-04a7-46cb-a894-78599b6e2aff-u)" d="M25.969 6.16H6.03V4.635a2.6 2.6 0 0 1 2.6-2.6H23.37a2.6 2.6 0 0 1 2.6 2.6z"/><path fill="url(#svg-ab8eecfa-03bb-4506-96ec-2e4765cd822e-v)" d="M25.969 6.16H6.03V4.635a2.6 2.6 0 0 1 2.6-2.6H23.37a2.6 2.6 0 0 1 2.6 2.6z"/></g><path fill="url(#svg-a36d98d9-3bff-449f-8300-124e60a3df12-w)" d="M25.969 25.878v1.479a2.6 2.6 0 0 1-2.6 2.6H8.63a2.6 2.6 0 0 1-2.6-2.6v-1.479z"/><path fill="url(#svg-a72ae020-be5c-4b7a-979b-d394eb007892-x)" d="M25.969 25.878v1.479a2.6 2.6 0 0 1-2.6 2.6H8.63a2.6 2.6 0 0 1-2.6-2.6v-1.479z"/><path fill="url(#svg-9648ca56-b078-4fa9-8ad0-52f75b500ba9-y)" d="M25.969 25.878v1.479a2.6 2.6 0 0 1-2.6 2.6H8.63a2.6 2.6 0 0 1-2.6-2.6v-1.479z"/><path fill="url(#svg-5079adcb-6e30-498c-8265-74123edbe961-z)" d="M25.969 25.878v1.479a2.6 2.6 0 0 1-2.6 2.6H8.63a2.6 2.6 0 0 1-2.6-2.6v-1.479z"/><defs><linearGradient id="svg-d8c3bd49-ea81-4c87-b714-d173aeabdad2-a" x1="16" x2="16" y1="7.441" y2="26.003" gradientUnits="userSpaceOnUse"><stop stop-color="#62326d"/><stop offset="1" stop-color="#434486"/></linearGradient><linearGradient id="svg-07001de7-df45-4a8c-b6a3-4514d8dbbd55-b" x1="6.031" x2="8.344" y1="21.816" y2="21.878" gradientUnits="userSpaceOnUse"><stop offset=".031" stop-color="#412c4c"/><stop offset="1" stop-color="#412c4c" stop-opacity="0"/></linearGradient><linearGradient id="svg-1abd0126-9279-432f-ad08-b1768879df96-d" x1="9.359" x2="10.406" y1="10.957" y2="10.957" gradientUnits="userSpaceOnUse"><stop offset=".333" stop-color="#ff945c"/><stop offset="1" stop-color="#ff945c" stop-opacity="0"/></linearGradient><linearGradient id="svg-2e0db3e3-2cf3-4d43-b763-5d5928eb1454-i" x1="9.359" x2="10.406" y1="22.675" y2="22.675" gradientUnits="userSpaceOnUse"><stop offset=".333" stop-color="#ff945c"/><stop offset="1" stop-color="#ff945c" stop-opacity="0"/></linearGradient><linearGradient id="svg-f6df61d2-fd45-4900-b5ed-9d68afa2d729-m" x1="19.641" x2="20.688" y1="16.816" y2="16.816" gradientUnits="userSpaceOnUse"><stop offset=".333" stop-color="#ff945c"/><stop offset="1" stop-color="#ff945c" stop-opacity="0"/></linearGradient><linearGradient id="svg-efc6f1ef-70e6-46db-b8a1-c85217505839-p" x1="24.453" x2="24.453" y1="5.597" y2="27.441" gradientUnits="userSpaceOnUse"><stop stop-color="#674876"/><stop offset="1" stop-color="#555187"/></linearGradient><linearGradient id="svg-62a076f6-79f8-4f10-a445-5da4df23a7fe-r" x1="16" x2="16" y1="2.035" y2="6.16" gradientUnits="userSpaceOnUse"><stop stop-color="#636ab6"/><stop offset="1" stop-color="#6c6ebe"/></linearGradient><linearGradient id="svg-3e8f3333-46e7-4506-a0ab-d87923a8f138-s" x1="17.156" x2="17.156" y1="6.316" y2="5.628" gradientUnits="userSpaceOnUse"><stop stop-color="#6062b1"/><stop offset="1" stop-color="#6062b1" stop-opacity="0"/></linearGradient><linearGradient id="svg-a9709a3d-1e58-4889-9f84-ade370f056fe-t" x1="6.031" x2="9.25" y1="6.16" y2="6.16" gradientUnits="userSpaceOnUse"><stop offset=".136" stop-color="#484b86"/><stop offset="1" stop-color="#5e61ad" stop-opacity="0"/></linearGradient><linearGradient id="svg-1162d2b4-04a7-46cb-a894-78599b6e2aff-u" x1="25.969" x2="23.031" y1="6.16" y2="6.16" gradientUnits="userSpaceOnUse"><stop offset=".128" stop-color="#7277c8"/><stop offset="1" stop-color="#7277c8" stop-opacity="0"/></linearGradient><linearGradient id="svg-a36d98d9-3bff-449f-8300-124e60a3df12-w" x1="16" x2="16" y1="25.878" y2="29.956" gradientUnits="userSpaceOnUse"><stop stop-color="#6b4390"/><stop offset="1" stop-color="#76509e"/></linearGradient><linearGradient id="svg-a72ae020-be5c-4b7a-979b-d394eb007892-x" x1="6.031" x2="8.438" y1="27.128" y2="27.128" gradientUnits="userSpaceOnUse"><stop offset=".164" stop-color="#4f3d6c"/><stop offset="1" stop-color="#6e4693" stop-opacity="0"/></linearGradient><linearGradient id="svg-5079adcb-6e30-498c-8265-74123edbe961-z" x1="15.688" x2="15.688" y1="25.597" y2="26.191" gradientUnits="userSpaceOnUse"><stop offset=".158" stop-color="#5e3d7f"/><stop offset="1" stop-color="#5e3d7f" stop-opacity="0"/></linearGradient><filter id="svg-fd397105-7edf-469a-b3ae-cd08603bf9a8-c" width="3.913" height="3.913" x="8.903" y="8.18" color-interpolation-filters="sRGB" filterUnits="userSpaceOnUse"><feFlood flood-opacity="0" result="BackgroundImageFix"/><feBlend in="SourceGraphic" in2="BackgroundImageFix" result="shape"/><feColorMatrix in="SourceAlpha" result="hardAlpha" values="0 0 0 0 0 0 0 0 0 0 0 0 0 0 0 0 0 0 127 0"/><feOffset dx="-.3" dy="-.3"/><feGaussianBlur stdDeviation=".2"/><feComposite in2="hardAlpha" k2="-1" k3="1" operator="arithmetic"/><feColorMatrix values="0 0 0 0 0.913725 0 0 0 0 0.384314 0 0 0 0 0.129412 0 0 0 1 0"/><feBlend in2="shape" result="effect1_innerShadow_18_19048"/><feColorMatrix in="SourceAlpha" result="hardAlpha" values="0 0 0 0 0 0 0 0 0 0 0 0 0 0 0 0 0 0 127 0"/><feOffset dx=".3" dy=".3"/><feGaussianBlur stdDeviation=".2"/><feComposite in2="hardAlpha" k2="-1" k3="1" operator="arithmetic"/><feColorMatrix values="0 0 0 0 1 0 0 0 0 0.498039 0 0 0 0 0.160784 0 0 0 1 0"/><feBlend in2="effect1_innerShadow_18_19048" result="effect2_innerShadow_18_19048"/></filter><filter id="svg-41039080-4202-4390-b713-fd7ec6f80956-e" width="3.913" height="3.913" x="14.044" y="8.18" color-interpolation-filters="sRGB" filterUnits="userSpaceOnUse"><feFlood flood-opacity="0" result="BackgroundImageFix"/><feBlend in="SourceGraphic" in2="BackgroundImageFix" result="shape"/><feColorMatrix in="SourceAlpha" result="hardAlpha" values="0 0 0 0 0 0 0 0 0 0 0 0 0 0 0 0 0 0 127 0"/><feOffset dx="-.3" dy="-.3"/><feGaussianBlur stdDeviation=".25"/><feComposite in2="hardAlpha" k2="-1" k3="1" operator="arithmetic"/><feColorMatrix values="0 0 0 0 0.0980392 0 0 0 0 0.572549 0 0 0 0 0.866667 0 0 0 1 0"/><feBlend in2="shape" result="effect1_innerShadow_18_19048"/><feColorMatrix in="SourceAlpha" result="hardAlpha" values="0 0 0 0 0 0 0 0 0 0 0 0 0 0 0 0 0 0 127 0"/><feOffset dx=".3" dy=".3"/><feGaussianBlur stdDeviation=".2"/><feComposite in2="hardAlpha" k2="-1" k3="1" operator="arithmetic"/><feColorMatrix values="0 0 0 0 0.0745098 0 0 0 0 0.709804 0 0 0 0 1 0 0 0 1 0"/><feBlend in2="effect1_innerShadow_18_19048" result="effect2_innerShadow_18_19048"/></filter><filter id="svg-e9d5c4aa-b5ff-41e9-a52e-7b5a52ab08c8-f" width="3.913" height="3.913" x="19.184" y="8.18" color-interpolation-filters="sRGB" filterUnits="userSpaceOnUse"><feFlood flood-opacity="0" result="BackgroundImageFix"/><feBlend in="SourceGraphic" in2="BackgroundImageFix" result="shape"/><feColorMatrix in="SourceAlpha" result="hardAlpha" values="0 0 0 0 0 0 0 0 0 0 0 0 0 0 0 0 0 0 127 0"/><feOffset dx="-.3" dy="-.3"/><feGaussianBlur stdDeviation=".25"/><feComposite in2="hardAlpha" k2="-1" k3="1" operator="arithmetic"/><feColorMatrix values="0 0 0 0 0.858824 0 0 0 0 0.752941 0 0 0 0 0.188235 0 0 0 1 0"/><feBlend in2="shape" result="effect1_innerShadow_18_19048"/><feColorMatrix in="SourceAlpha" result="hardAlpha" values="0 0 0 0 0 0 0 0 0 0 0 0 0 0 0 0 0 0 127 0"/><feOffset dx=".3" dy=".3"/><feGaussianBlur stdDeviation=".2"/><feComposite in2="hardAlpha" k2="-1" k3="1" operator="arithmetic"/><feColorMatrix values="0 0 0 0 0.968627 0 0 0 0 0.858824 0 0 0 0 0.223529 0 0 0 1 0"/><feBlend in2="effect1_innerShadow_18_19048" result="effect2_innerShadow_18_19048"/></filter><filter id="svg-4d4326a5-81c8-4219-b2b9-78a8a11f8435-g" width="3.913" height="3.913" x="8.903" y="14.039" color-interpolation-filters="sRGB" filterUnits="userSpaceOnUse"><feFlood flood-opacity="0" result="BackgroundImageFix"/><feBlend in="SourceGraphic" in2="BackgroundImageFix" result="shape"/><feColorMatrix in="SourceAlpha" result="hardAlpha" values="0 0 0 0 0 0 0 0 0 0 0 0 0 0 0 0 0 0 127 0"/><feOffset dx="-.3" dy="-.3"/><feGaussianBlur stdDeviation=".25"/><feComposite in2="hardAlpha" k2="-1" k3="1" operator="arithmetic"/><feColorMatrix values="0 0 0 0 0.0980392 0 0 0 0 0.572549 0 0 0 0 0.866667 0 0 0 1 0"/><feBlend in2="shape" result="effect1_innerShadow_18_19048"/><feColorMatrix in="SourceAlpha" result="hardAlpha" values="0 0 0 0 0 0 0 0 0 0 0 0 0 0 0 0 0 0 127 0"/><feOffset dx=".3" dy=".3"/><feGaussianBlur stdDeviation=".2"/><feComposite in2="hardAlpha" k2="-1" k3="1" operator="arithmetic"/><feColorMatrix values="0 0 0 0 0.0745098 0 0 0 0 0.709804 0 0 0 0 1 0 0 0 1 0"/><feBlend in2="effect1_innerShadow_18_19048" result="effect2_innerShadow_18_19048"/></filter><filter id="svg-0bd2e150-9dd6-4e02-863c-bb1382d7959b-h" width="3.913" height="3.913" x="8.903" y="19.899" color-interpolation-filters="sRGB" filterUnits="userSpaceOnUse"><feFlood flood-opacity="0" result="BackgroundImageFix"/><feBlend in="SourceGraphic" in2="BackgroundImageFix" result="shape"/><feColorMatrix in="SourceAlpha" result="hardAlpha" values="0 0 0 0 0 0 0 0 0 0 0 0 0 0 0 0 0 0 127 0"/><feOffset dx="-.3" dy="-.3"/><feGaussianBlur stdDeviation=".2"/><feComposite in2="hardAlpha" k2="-1" k3="1" operator="arithmetic"/><feColorMatrix values="0 0 0 0 0.913725 0 0 0 0 0.384314 0 0 0 0 0.129412 0 0 0 1 0"/><feBlend in2="shape" result="effect1_innerShadow_18_19048"/><feColorMatrix in="SourceAlpha" result="hardAlpha" values="0 0 0 0 0 0 0 0 0 0 0 0 0 0 0 0 0 0 127 0"/><feOffset dx=".3" dy=".3"/><feGaussianBlur stdDeviation=".2"/><feComposite in2="hardAlpha" k2="-1" k3="1" operator="arithmetic"/><feColorMatrix values="0 0 0 0 1 0 0 0 0 0.498039 0 0 0 0 0.160784 0 0 0 1 0"/><feBlend in2="effect1_innerShadow_18_19048" result="effect2_innerShadow_18_19048"/></filter><filter id="svg-1e5d6669-fedb-4bab-a067-461b83f54bf4-j" width="3.913" height="3.913" x="14.044" y="14.039" color-interpolation-filters="sRGB" filterUnits="userSpaceOnUse"><feFlood flood-opacity="0" result="BackgroundImageFix"/><feBlend in="SourceGraphic" in2="BackgroundImageFix" result="shape"/><feColorMatrix in="SourceAlpha" result="hardAlpha" values="0 0 0 0 0 0 0 0 0 0 0 0 0 0 0 0 0 0 127 0"/><feOffset dx="-.3" dy="-.3"/><feGaussianBlur stdDeviation=".25"/><feComposite in2="hardAlpha" k2="-1" k3="1" operator="arithmetic"/><feColorMatrix values="0 0 0 0 0.858824 0 0 0 0 0.752941 0 0 0 0 0.188235 0 0 0 1 0"/><feBlend in2="shape" result="effect1_innerShadow_18_19048"/><feColorMatrix in="SourceAlpha" result="hardAlpha" values="0 0 0 0 0 0 0 0 0 0 0 0 0 0 0 0 0 0 127 0"/><feOffset dx=".3" dy=".3"/><feGaussianBlur stdDeviation=".2"/><feComposite in2="hardAlpha" k2="-1" k3="1" operator="arithmetic"/><feColorMatrix values="0 0 0 0 0.968627 0 0 0 0 0.858824 0 0 0 0 0.223529 0 0 0 1 0"/><feBlend in2="effect1_innerShadow_18_19048" result="effect2_innerShadow_18_19048"/></filter><filter id="svg-d493301f-f5ba-4751-8dc3-c9f1b6c4a82c-k" width="3.913" height="3.913" x="14.044" y="19.899" color-interpolation-filters="sRGB" filterUnits="userSpaceOnUse"><feFlood flood-opacity="0" result="BackgroundImageFix"/><feBlend in="SourceGraphic" in2="BackgroundImageFix" result="shape"/><feColorMatrix in="SourceAlpha" result="hardAlpha" values="0 0 0 0 0 0 0 0 0 0 0 0 0 0 0 0 0 0 127 0"/><feOffset dx="-.3" dy="-.3"/><feGaussianBlur stdDeviation=".25"/><feComposite in2="hardAlpha" k2="-1" k3="1" operator="arithmetic"/><feColorMatrix values="0 0 0 0 0.0980392 0 0 0 0 0.572549 0 0 0 0 0.866667 0 0 0 1 0"/><feBlend in2="shape" result="effect1_innerShadow_18_19048"/><feColorMatrix in="SourceAlpha" result="hardAlpha" values="0 0 0 0 0 0 0 0 0 0 0 0 0 0 0 0 0 0 127 0"/><feOffset dx=".3" dy=".3"/><feGaussianBlur stdDeviation=".2"/><feComposite in2="hardAlpha" k2="-1" k3="1" operator="arithmetic"/><feColorMatrix values="0 0 0 0 0.0745098 0 0 0 0 0.709804 0 0 0 0 1 0 0 0 1 0"/><feBlend in2="effect1_innerShadow_18_19048" result="effect2_innerShadow_18_19048"/></filter><filter id="svg-0557ccd3-120c-40eb-9a63-f80e5ca44c6a-l" width="3.913" height="3.913" x="19.184" y="14.039" color-interpolation-filters="sRGB" filterUnits="userSpaceOnUse"><feFlood flood-opacity="0" result="BackgroundImageFix"/><feBlend in="SourceGraphic" in2="BackgroundImageFix" result="shape"/><feColorMatrix in="SourceAlpha" result="hardAlpha" values="0 0 0 0 0 0 0 0 0 0 0 0 0 0 0 0 0 0 127 0"/><feOffset dx="-.3" dy="-.3"/><feGaussianBlur stdDeviation=".2"/><feComposite in2="hardAlpha" k2="-1" k3="1" operator="arithmetic"/><feColorMatrix values="0 0 0 0 0.913725 0 0 0 0 0.384314 0 0 0 0 0.129412 0 0 0 1 0"/><feBlend in2="shape" result="effect1_innerShadow_18_19048"/><feColorMatrix in="SourceAlpha" result="hardAlpha" values="0 0 0 0 0 0 0 0 0 0 0 0 0 0 0 0 0 0 127 0"/><feOffset dx=".3" dy=".3"/><feGaussianBlur stdDeviation=".2"/><feComposite in2="hardAlpha" k2="-1" k3="1" operator="arithmetic"/><feColorMatrix values="0 0 0 0 1 0 0 0 0 0.498039 0 0 0 0 0.160784 0 0 0 1 0"/><feBlend in2="effect1_innerShadow_18_19048" result="effect2_innerShadow_18_19048"/></filter><filter id="svg-4fe3aecc-ccf6-4649-bd49-8f4b0229807f-n" width="3.913" height="3.913" x="19.184" y="19.899" color-interpolation-filters="sRGB" filterUnits="userSpaceOnUse"><feFlood flood-opacity="0" result="BackgroundImageFix"/><feBlend in="SourceGraphic" in2="BackgroundImageFix" result="shape"/><feColorMatrix in="SourceAlpha" result="hardAlpha" values="0 0 0 0 0 0 0 0 0 0 0 0 0 0 0 0 0 0 127 0"/><feOffset dx="-.3" dy="-.3"/><feGaussianBlur stdDeviation=".25"/><feComposite in2="hardAlpha" k2="-1" k3="1" operator="arithmetic"/><feColorMatrix values="0 0 0 0 0.858824 0 0 0 0 0.752941 0 0 0 0 0.188235 0 0 0 1 0"/><feBlend in2="shape" result="effect1_innerShadow_18_19048"/><feColorMatrix in="SourceAlpha" result="hardAlpha" values="0 0 0 0 0 0 0 0 0 0 0 0 0 0 0 0 0 0 127 0"/><feOffset dx=".3" dy=".3"/><feGaussianBlur stdDeviation=".2"/><feComposite in2="hardAlpha" k2="-1" k3="1" operator="arithmetic"/><feColorMatrix values="0 0 0 0 0.968627 0 0 0 0 0.858824 0 0 0 0 0.223529 0 0 0 1 0"/><feBlend in2="effect1_innerShadow_18_19048" result="effect2_innerShadow_18_19048"/></filter><filter id="svg-5aa426ba-9d39-4dcb-b66a-6ebd848989e6-o" width="3.531" height="23.844" x="22.688" y="4.597" color-interpolation-filters="sRGB" filterUnits="userSpaceOnUse"><feFlood flood-opacity="0" result="BackgroundImageFix"/><feBlend in="SourceGraphic" in2="BackgroundImageFix" result="shape"/><feGaussianBlur result="effect1_foregroundBlur_18_19048" stdDeviation=".5"/></filter><filter id="svg-180cd2f8-be32-413c-8f8e-ea6ade62336b-q" width="19.938" height="4.225" x="6.031" y="2.035" color-interpolation-filters="sRGB" filterUnits="userSpaceOnUse"><feFlood flood-opacity="0" result="BackgroundImageFix"/><feBlend in="SourceGraphic" in2="BackgroundImageFix" result="shape"/><feColorMatrix in="SourceAlpha" result="hardAlpha" values="0 0 0 0 0 0 0 0 0 0 0 0 0 0 0 0 0 0 127 0"/><feOffset dy=".1"/><feGaussianBlur stdDeviation=".375"/><feComposite in2="hardAlpha" k2="-1" k3="1" operator="arithmetic"/><feColorMatrix values="0 0 0 0 0.380392 0 0 0 0 0.407843 0 0 0 0 0.666667 0 0 0 1 0"/><feBlend in2="shape" result="effect1_innerShadow_18_19048"/></filter><radialGradient id="svg-ab8eecfa-03bb-4506-96ec-2e4765cd822e-v" cx="0" cy="0" r="1" gradientTransform="matrix(-.65625 0 0 -3.17187 25.969 5.878)" gradientUnits="userSpaceOnUse"><stop stop-color="#6c6fb4"/><stop offset="1" stop-color="#6c6fb4" stop-opacity="0"/></radialGradient><radialGradient id="svg-9648ca56-b078-4fa9-8ad0-52f75b500ba9-y" cx="0" cy="0" r="1" gradientTransform="matrix(0 3.09375 -1.625 0 24.313 25.535)" gradientUnits="userSpaceOnUse"><stop stop-color="#6b5094"/><stop offset="1" stop-color="#6b5094" stop-opacity="0"/></radialGradient></defs></svg>