<svg xmlns="http://www.w3.org/2000/svg" fill="none" viewBox="0 0 32 32"><g filter="url(#svg-7d9a2783-1ca0-45bd-8202-7d4b73541966-a)"><rect width="18.2" height="25.721" x="7.662" y="4.228" fill="url(#svg-bd3673da-5e91-46e0-a642-17ffbc5029e4-b)" rx="1.25"/><rect width="18.2" height="25.721" x="7.662" y="4.228" fill="url(#svg-f94753a5-ab0a-4443-abde-f7f034116f08-c)" rx="1.25"/></g><rect width="18.2" height="25.721" x="7.662" y="4.228" fill="url(#svg-281973b3-1eac-45c0-8156-f4282af4f008-d)" rx="1.25"/><rect width="18.2" height="25.721" x="7.662" y="4.228" fill="url(#svg-5b01a1ac-986c-48e8-8d68-f4f86a7910ab-e)" rx="1.25"/><g filter="url(#svg-f760f6c7-2eb1-4b67-b7e0-bed38993cf89-f)"><path fill="url(#svg-138ff45b-6e53-4e4d-bd39-0e068305f7ea-g)" d="M8.15 4.228c-.69 0-1.25.56-1.25 1.25v23.22c0 .69.56 1.25 1.25 1.25h10.633a1 1 0 0 0 .707-.293l5.317-5.316a1 1 0 0 0 .293-.707V5.478c0-.69-.56-1.25-1.25-1.25z"/></g><g filter="url(#svg-9b3f7ed5-7d8a-4771-a054-918cc0c1be88-h)"><path fill="#d4c7e1" d="M24.17 24.227c.13 0 .374-.11.411-.318a.96.96 0 0 1-.28.667l-5.092 5.092a.96.96 0 0 1-.552.272.28.28 0 0 0 .212-.236v-4.52c0-.529.428-.957.957-.957z"/></g><g filter="url(#svg-90dd4e2d-ab80-421d-9cf5-f6931389f132-i)"><path fill="url(#svg-fb8eb511-d7ab-4f53-a349-906a662d99bd-j)" d="M24.67 23.974c.137 0 .39-.114.43-.331a1 1 0 0 1-.293.696l-5.317 5.317a1 1 0 0 1-.575.284.29.29 0 0 0 .22-.246v-4.72a1 1 0 0 1 1-1z"/><path fill="url(#svg-cd6671c9-bc43-4a79-b44e-c2b8970231b8-k)" d="M24.67 23.974c.137 0 .39-.114.43-.331a1 1 0 0 1-.293.696l-5.317 5.317a1 1 0 0 1-.575.284.29.29 0 0 0 .22-.246v-4.72a1 1 0 0 1 1-1z"/></g><rect width="14.961" height=".969" x="8.87" y="10.034" fill="#a09da4" rx=".484"/><rect width="14.961" height=".969" x="8.87" y="13.021" fill="#a09da4" rx=".484"/><rect width="14.961" height=".969" x="8.87" y="16.008" fill="#a09da4" rx=".484"/><rect width="9.055" height=".969" x="8.87" y="18.995" fill="#a09da4" rx=".484"/><g filter="url(#svg-52332459-36ee-4dac-8555-77cc8eff0d6d-l)"><path fill="#d3ccdc" d="M18.416 4.33q-.009.097-.009.196c0 1.187.928 2.165 2.126 2.303a.496.496 0 0 0 .556-.42.485.485 0 0 0-.437-.533c-.7-.081-1.245-.655-1.245-1.35q0-.1.015-.195z"/></g><g filter="url(#svg-5760049c-cb4e-4eaf-8ad7-d838fd9fbfd7-m)"><path fill="#d3ccdc" d="M14.666 4.33q-.009.097-.009.196c0 1.187.928 2.165 2.126 2.303a.496.496 0 0 0 .556-.42.485.485 0 0 0-.437-.533c-.701-.081-1.245-.655-1.245-1.35q0-.1.015-.195z"/></g><g filter="url(#svg-730a91cc-88f9-4d27-8735-48caa08a44b2-n)"><path fill="#d4cddc" d="M10.916 4.33q-.009.097-.009.196c0 1.187.928 2.165 2.126 2.303a.496.496 0 0 0 .556-.42.485.485 0 0 0-.437-.533c-.701-.081-1.245-.655-1.245-1.35q0-.1.014-.195z"/></g><g filter="url(#svg-42b0169a-38ee-4e31-a9c2-0945d4dbe3dc-o)"><path fill="#d0c9d7" d="M7.264 4.788c.086 1.062.946 1.915 2.04 2.041.263.03.503-.15.535-.404a.467.467 0 0 0-.42-.514c-.676-.078-1.2-.63-1.2-1.3q0-.096.014-.187h-.5c-.185.08-.346.206-.47.364"/></g><g filter="url(#svg-9eaca2b9-d568-40c4-82c9-dda8a3f66566-p)"><path fill="url(#svg-e99266ef-60d5-4095-8d43-5139416a09f7-q)" d="M8.599 4.43a1.416 1.416 0 0 1 2.817-.202h1.006a2.416 2.416 0 1 0-2.697 2.601.5.5 0 0 0 .119-.993A1.416 1.416 0 0 1 8.599 4.43"/></g><g filter="url(#svg-2684c123-1b2b-43c5-be9f-09a489985ec6-r)"><path fill="url(#svg-079704f6-e602-43d0-b631-502019f797b5-s)" d="M12.43 4.43a1.416 1.416 0 0 1 2.819-.202h1.005a2.416 2.416 0 1 0-2.697 2.601.5.5 0 0 0 .119-.993A1.416 1.416 0 0 1 12.43 4.43"/></g><g filter="url(#svg-da84a14e-9fc5-4d1f-8b25-69e63d1e2e61-t)"><path fill="url(#svg-ea138106-1df5-4d8e-b5e1-4a0babd16f9a-u)" d="M16.263 4.43a1.416 1.416 0 0 1 2.818-.202h1.006a2.416 2.416 0 1 0-2.698 2.601.5.5 0 1 0 .119-.993 1.416 1.416 0 0 1-1.245-1.406"/></g><g filter="url(#svg-83c770fa-0d6d-449c-9dc7-5b67014e3384-v)"><path fill="url(#svg-8f52960a-1863-40d2-b11d-0814b08be18f-w)" d="M20.095 4.43a1.416 1.416 0 0 1 2.818-.202h1.006a2.416 2.416 0 1 0-2.698 2.601.5.5 0 0 0 .119-.993 1.416 1.416 0 0 1-1.245-1.406"/></g><g filter="url(#svg-d0dd93d9-15de-4064-9170-3ff39329d376-x)"><path stroke="url(#svg-7fe9b0bc-0c16-4abb-9030-e9a8b78758cb-y)" stroke-linecap="round" stroke-width=".25" d="M23.423 4.343c0-1.01-.808-1.829-1.804-1.829s-1.803.82-1.803 1.83a1.82 1.82 0 0 0 1.586 1.815"/></g><g filter="url(#svg-6cccc49d-1f44-4f39-8bd4-76b3b5c3b383-z)"><path stroke="url(#svg-a89c9ef5-72a0-4139-8a8e-60444bf9c387-A)" stroke-linecap="round" stroke-width=".25" d="M19.607 4.343c0-1.01-.807-1.829-1.803-1.829S16 3.334 16 4.344a1.82 1.82 0 0 0 1.586 1.815"/></g><g filter="url(#svg-8ff1bbb6-4343-494f-a06e-5d1e58f2968b-B)"><path stroke="url(#svg-0cec6419-61af-43e2-b4b7-f6494d8c2957-C)" stroke-linecap="round" stroke-width=".25" d="M15.646 4.343c0-1.01-.807-1.829-1.803-1.829s-1.804.82-1.804 1.83a1.82 1.82 0 0 0 1.587 1.815"/></g><g filter="url(#svg-d79c381c-c6c9-480e-a1ba-dea9e6313ab0-D)"><path stroke="url(#svg-d1707ab8-f06f-49ee-8736-b2a08a0769d0-E)" stroke-linecap="round" stroke-width=".25" d="M11.831 4.343c0-1.01-.807-1.829-1.803-1.829-.997 0-1.804.82-1.804 1.83A1.82 1.82 0 0 0 9.81 6.158"/></g><defs><filter id="svg-7d9a2783-1ca0-45bd-8202-7d4b73541966-a" width="18.35" height="25.721" x="7.512" y="4.228" color-interpolation-filters="sRGB" filterUnits="userSpaceOnUse"><feFlood flood-opacity="0" result="BackgroundImageFix"/><feBlend in="SourceGraphic" in2="BackgroundImageFix" result="shape"/><feColorMatrix in="SourceAlpha" result="hardAlpha" values="0 0 0 0 0 0 0 0 0 0 0 0 0 0 0 0 0 0 127 0"/><feOffset dx="-.15"/><feGaussianBlur stdDeviation=".1"/><feComposite in2="hardAlpha" k2="-1" k3="1" operator="arithmetic"/><feColorMatrix values="0 0 0 0 0.87451 0 0 0 0 0.847059 0 0 0 0 0.905882 0 0 0 1 0"/><feBlend in2="shape" result="effect1_innerShadow_18_22725"/></filter><filter id="svg-f760f6c7-2eb1-4b67-b7e0-bed38993cf89-f" width="18.549" height="25.921" x="6.7" y="4.078" color-interpolation-filters="sRGB" filterUnits="userSpaceOnUse"><feFlood flood-opacity="0" result="BackgroundImageFix"/><feBlend in="SourceGraphic" in2="BackgroundImageFix" result="shape"/><feColorMatrix in="SourceAlpha" result="hardAlpha" values="0 0 0 0 0 0 0 0 0 0 0 0 0 0 0 0 0 0 127 0"/><feOffset dx=".15" dy="-.15"/><feGaussianBlur stdDeviation=".125"/><feComposite in2="hardAlpha" k2="-1" k3="1" operator="arithmetic"/><feColorMatrix values="0 0 0 0 0.792157 0 0 0 0 0.756863 0 0 0 0 0.835294 0 0 0 1 0"/><feBlend in2="shape" result="effect1_innerShadow_18_22725"/><feColorMatrix in="SourceAlpha" result="hardAlpha" values="0 0 0 0 0 0 0 0 0 0 0 0 0 0 0 0 0 0 127 0"/><feOffset dx="-.2"/><feGaussianBlur stdDeviation=".125"/><feComposite in2="hardAlpha" k2="-1" k3="1" operator="arithmetic"/><feColorMatrix values="0 0 0 0 1 0 0 0 0 1 0 0 0 0 1 0 0 0 1 0"/><feBlend in2="effect1_innerShadow_18_22725" result="effect2_innerShadow_18_22725"/><feColorMatrix in="SourceAlpha" result="hardAlpha" values="0 0 0 0 0 0 0 0 0 0 0 0 0 0 0 0 0 0 127 0"/><feOffset dy="-.15"/><feGaussianBlur stdDeviation=".075"/><feComposite in2="hardAlpha" k2="-1" k3="1" operator="arithmetic"/><feColorMatrix values="0 0 0 0 0.721569 0 0 0 0 0.623529 0 0 0 0 0.819608 0 0 0 1 0"/><feBlend in2="effect2_innerShadow_18_22725" result="effect3_innerShadow_18_22725"/><feColorMatrix in="SourceAlpha" result="hardAlpha" values="0 0 0 0 0 0 0 0 0 0 0 0 0 0 0 0 0 0 127 0"/><feOffset dy=".05"/><feGaussianBlur stdDeviation=".05"/><feComposite in2="hardAlpha" k2="-1" k3="1" operator="arithmetic"/><feColorMatrix values="0 0 0 0 0.858824 0 0 0 0 0.85098 0 0 0 0 0.870588 0 0 0 1 0"/><feBlend in2="effect3_innerShadow_18_22725" result="effect4_innerShadow_18_22725"/></filter><filter id="svg-9b3f7ed5-7d8a-4771-a054-918cc0c1be88-h" width="6.424" height="6.531" x="18.407" y="23.659" color-interpolation-filters="sRGB" filterUnits="userSpaceOnUse"><feFlood flood-opacity="0" result="BackgroundImageFix"/><feBlend in="SourceGraphic" in2="BackgroundImageFix" result="shape"/><feGaussianBlur result="effect1_foregroundBlur_18_22725" stdDeviation=".125"/></filter><filter id="svg-90dd4e2d-ab80-421d-9cf5-f6931389f132-i" width="6.285" height="6.397" x="18.915" y="23.543" color-interpolation-filters="sRGB" filterUnits="userSpaceOnUse"><feFlood flood-opacity="0" result="BackgroundImageFix"/><feBlend in="SourceGraphic" in2="BackgroundImageFix" result="shape"/><feColorMatrix in="SourceAlpha" result="hardAlpha" values="0 0 0 0 0 0 0 0 0 0 0 0 0 0 0 0 0 0 127 0"/><feOffset dx=".1" dy="-.1"/><feGaussianBlur stdDeviation=".15"/><feComposite in2="hardAlpha" k2="-1" k3="1" operator="arithmetic"/><feColorMatrix values="0 0 0 0 0.686275 0 0 0 0 0.647059 0 0 0 0 0.729412 0 0 0 1 0"/><feBlend in2="shape" result="effect1_innerShadow_18_22725"/></filter><filter id="svg-52332459-36ee-4dac-8555-77cc8eff0d6d-l" width="3.585" height="3.402" x="17.957" y="3.881" color-interpolation-filters="sRGB" filterUnits="userSpaceOnUse"><feFlood flood-opacity="0" result="BackgroundImageFix"/><feBlend in="SourceGraphic" in2="BackgroundImageFix" result="shape"/><feGaussianBlur result="effect1_foregroundBlur_18_22725" stdDeviation=".225"/></filter><filter id="svg-5760049c-cb4e-4eaf-8ad7-d838fd9fbfd7-m" width="3.585" height="3.402" x="14.207" y="3.881" color-interpolation-filters="sRGB" filterUnits="userSpaceOnUse"><feFlood flood-opacity="0" result="BackgroundImageFix"/><feBlend in="SourceGraphic" in2="BackgroundImageFix" result="shape"/><feGaussianBlur result="effect1_foregroundBlur_18_22725" stdDeviation=".225"/></filter><filter id="svg-730a91cc-88f9-4d27-8735-48caa08a44b2-n" width="3.585" height="3.402" x="10.457" y="3.881" color-interpolation-filters="sRGB" filterUnits="userSpaceOnUse"><feFlood flood-opacity="0" result="BackgroundImageFix"/><feBlend in="SourceGraphic" in2="BackgroundImageFix" result="shape"/><feGaussianBlur result="effect1_foregroundBlur_18_22725" stdDeviation=".225"/></filter><filter id="svg-42b0169a-38ee-4e31-a9c2-0945d4dbe3dc-o" width="3.479" height="3.309" x="6.814" y="3.974" color-interpolation-filters="sRGB" filterUnits="userSpaceOnUse"><feFlood flood-opacity="0" result="BackgroundImageFix"/><feBlend in="SourceGraphic" in2="BackgroundImageFix" result="shape"/><feGaussianBlur result="effect1_foregroundBlur_18_22725" stdDeviation=".225"/></filter><filter id="svg-9eaca2b9-d568-40c4-82c9-dda8a3f66566-p" width="5.074" height="4.968" x="7.599" y="1.864" color-interpolation-filters="sRGB" filterUnits="userSpaceOnUse"><feFlood flood-opacity="0" result="BackgroundImageFix"/><feBlend in="SourceGraphic" in2="BackgroundImageFix" result="shape"/><feColorMatrix in="SourceAlpha" result="hardAlpha" values="0 0 0 0 0 0 0 0 0 0 0 0 0 0 0 0 0 0 127 0"/><feOffset dx=".25" dy="-.15"/><feGaussianBlur stdDeviation=".3"/><feComposite in2="hardAlpha" k2="-1" k3="1" operator="arithmetic"/><feColorMatrix values="0 0 0 0 0.647059 0 0 0 0 0.607843 0 0 0 0 0.694118 0 0 0 1 0"/><feBlend in2="shape" result="effect1_innerShadow_18_22725"/></filter><filter id="svg-2684c123-1b2b-43c5-be9f-09a489985ec6-r" width="5.074" height="4.968" x="11.431" y="1.864" color-interpolation-filters="sRGB" filterUnits="userSpaceOnUse"><feFlood flood-opacity="0" result="BackgroundImageFix"/><feBlend in="SourceGraphic" in2="BackgroundImageFix" result="shape"/><feColorMatrix in="SourceAlpha" result="hardAlpha" values="0 0 0 0 0 0 0 0 0 0 0 0 0 0 0 0 0 0 127 0"/><feOffset dx=".25" dy="-.15"/><feGaussianBlur stdDeviation=".3"/><feComposite in2="hardAlpha" k2="-1" k3="1" operator="arithmetic"/><feColorMatrix values="0 0 0 0 0.647059 0 0 0 0 0.607843 0 0 0 0 0.694118 0 0 0 1 0"/><feBlend in2="shape" result="effect1_innerShadow_18_22725"/></filter><filter id="svg-da84a14e-9fc5-4d1f-8b25-69e63d1e2e61-t" width="5.074" height="4.968" x="15.263" y="1.864" color-interpolation-filters="sRGB" filterUnits="userSpaceOnUse"><feFlood flood-opacity="0" result="BackgroundImageFix"/><feBlend in="SourceGraphic" in2="BackgroundImageFix" result="shape"/><feColorMatrix in="SourceAlpha" result="hardAlpha" values="0 0 0 0 0 0 0 0 0 0 0 0 0 0 0 0 0 0 127 0"/><feOffset dx=".25" dy="-.15"/><feGaussianBlur stdDeviation=".3"/><feComposite in2="hardAlpha" k2="-1" k3="1" operator="arithmetic"/><feColorMatrix values="0 0 0 0 0.647059 0 0 0 0 0.607843 0 0 0 0 0.694118 0 0 0 1 0"/><feBlend in2="shape" result="effect1_innerShadow_18_22725"/></filter><filter id="svg-83c770fa-0d6d-449c-9dc7-5b67014e3384-v" width="5.074" height="4.968" x="19.095" y="1.864" color-interpolation-filters="sRGB" filterUnits="userSpaceOnUse"><feFlood flood-opacity="0" result="BackgroundImageFix"/><feBlend in="SourceGraphic" in2="BackgroundImageFix" result="shape"/><feColorMatrix in="SourceAlpha" result="hardAlpha" values="0 0 0 0 0 0 0 0 0 0 0 0 0 0 0 0 0 0 127 0"/><feOffset dx=".25" dy="-.15"/><feGaussianBlur stdDeviation=".3"/><feComposite in2="hardAlpha" k2="-1" k3="1" operator="arithmetic"/><feColorMatrix values="0 0 0 0 0.647059 0 0 0 0 0.607843 0 0 0 0 0.694118 0 0 0 1 0"/><feBlend in2="shape" result="effect1_innerShadow_18_22725"/></filter><filter id="svg-d0dd93d9-15de-4064-9170-3ff39329d376-x" width="4.257" height="4.295" x="19.491" y="2.189" color-interpolation-filters="sRGB" filterUnits="userSpaceOnUse"><feFlood flood-opacity="0" result="BackgroundImageFix"/><feBlend in="SourceGraphic" in2="BackgroundImageFix" result="shape"/><feGaussianBlur result="effect1_foregroundBlur_18_22725" stdDeviation=".1"/></filter><filter id="svg-6cccc49d-1f44-4f39-8bd4-76b3b5c3b383-z" width="4.257" height="4.295" x="15.675" y="2.189" color-interpolation-filters="sRGB" filterUnits="userSpaceOnUse"><feFlood flood-opacity="0" result="BackgroundImageFix"/><feBlend in="SourceGraphic" in2="BackgroundImageFix" result="shape"/><feGaussianBlur result="effect1_foregroundBlur_18_22725" stdDeviation=".1"/></filter><filter id="svg-8ff1bbb6-4343-494f-a06e-5d1e58f2968b-B" width="4.257" height="4.295" x="11.714" y="2.189" color-interpolation-filters="sRGB" filterUnits="userSpaceOnUse"><feFlood flood-opacity="0" result="BackgroundImageFix"/><feBlend in="SourceGraphic" in2="BackgroundImageFix" result="shape"/><feGaussianBlur result="effect1_foregroundBlur_18_22725" stdDeviation=".1"/></filter><filter id="svg-d79c381c-c6c9-480e-a1ba-dea9e6313ab0-D" width="4.257" height="4.295" x="7.899" y="2.189" color-interpolation-filters="sRGB" filterUnits="userSpaceOnUse"><feFlood flood-opacity="0" result="BackgroundImageFix"/><feBlend in="SourceGraphic" in2="BackgroundImageFix" result="shape"/><feGaussianBlur result="effect1_foregroundBlur_18_22725" stdDeviation=".1"/></filter><linearGradient id="svg-bd3673da-5e91-46e0-a642-17ffbc5029e4-b" x1="25.862" x2="22.159" y1="29.424" y2="25.143" gradientUnits="userSpaceOnUse"><stop stop-color="#e5dbf1"/><stop offset=".759" stop-color="#dacee5"/></linearGradient><linearGradient id="svg-f94753a5-ab0a-4443-abde-f7f034116f08-c" x1="25.862" x2="25.862" y1="4.549" y2="26.219" gradientUnits="userSpaceOnUse"><stop offset=".469" stop-color="#c4bfca"/><stop offset="1" stop-color="#c6c1cb" stop-opacity="0"/></linearGradient><linearGradient id="svg-281973b3-1eac-45c0-8156-f4282af4f008-d" x1="26.205" x2="25.32" y1="29.948" y2="29.948" gradientUnits="userSpaceOnUse"><stop stop-color="#f2e9fc"/><stop offset="1" stop-color="#f2e9fc" stop-opacity="0"/></linearGradient><linearGradient id="svg-5b01a1ac-986c-48e8-8d68-f4f86a7910ab-e" x1="21.628" x2="21.628" y1="30.143" y2="29.549" gradientUnits="userSpaceOnUse"><stop stop-color="#d4c7e2"/><stop offset="1" stop-color="#d4c7e2" stop-opacity="0"/></linearGradient><linearGradient id="svg-138ff45b-6e53-4e4d-bd39-0e068305f7ea-g" x1="16" x2="16" y1="4.228" y2="29.948" gradientUnits="userSpaceOnUse"><stop stop-color="#f1ebf7"/><stop offset="1" stop-color="#e6dcf1"/></linearGradient><linearGradient id="svg-fb8eb511-d7ab-4f53-a349-906a662d99bd-j" x1="19.159" x2="21.534" y1="25.237" y2="28.018" gradientUnits="userSpaceOnUse"><stop stop-color="#d9d1e3"/><stop offset=".901" stop-color="#c8bdd3"/></linearGradient><linearGradient id="svg-cd6671c9-bc43-4a79-b44e-c2b8970231b8-k" x1="22.007" x2="22.007" y1="23.799" y2="24.612" gradientUnits="userSpaceOnUse"><stop stop-color="#ddd9e1"/><stop offset="1" stop-color="#ddd9e1" stop-opacity="0"/></linearGradient><linearGradient id="svg-e99266ef-60d5-4095-8d43-5139416a09f7-q" x1="11.726" x2="9.491" y1="3.237" y2="7.081" gradientUnits="userSpaceOnUse"><stop stop-color="#ceccd0"/><stop offset="1" stop-color="#ada9b2"/></linearGradient><linearGradient id="svg-079704f6-e602-43d0-b631-502019f797b5-s" x1="15.558" x2="13.323" y1="3.237" y2="7.081" gradientUnits="userSpaceOnUse"><stop stop-color="#ceccd0"/><stop offset="1" stop-color="#ada9b2"/></linearGradient><linearGradient id="svg-ea138106-1df5-4d8e-b5e1-4a0babd16f9a-u" x1="19.39" x2="17.155" y1="3.237" y2="7.081" gradientUnits="userSpaceOnUse"><stop stop-color="#ceccd0"/><stop offset="1" stop-color="#ada9b2"/></linearGradient><linearGradient id="svg-8f52960a-1863-40d2-b11d-0814b08be18f-w" x1="23.222" x2="20.988" y1="3.237" y2="7.081" gradientUnits="userSpaceOnUse"><stop stop-color="#ceccd0"/><stop offset="1" stop-color="#ada9b2"/></linearGradient><linearGradient id="svg-7fe9b0bc-0c16-4abb-9030-e9a8b78758cb-y" x1="20.8" x2="23.337" y1="1.956" y2="4.593" gradientUnits="userSpaceOnUse"><stop stop-color="#dcd9e0"/><stop offset="1" stop-color="#dcd9e0" stop-opacity="0"/></linearGradient><linearGradient id="svg-a89c9ef5-72a0-4139-8a8e-60444bf9c387-A" x1="16.984" x2="19.521" y1="1.956" y2="4.593" gradientUnits="userSpaceOnUse"><stop stop-color="#dcd9e0"/><stop offset="1" stop-color="#dcd9e0" stop-opacity="0"/></linearGradient><linearGradient id="svg-0cec6419-61af-43e2-b4b7-f6494d8c2957-C" x1="13.024" x2="15.56" y1="1.956" y2="4.593" gradientUnits="userSpaceOnUse"><stop stop-color="#dcd9e0"/><stop offset="1" stop-color="#dcd9e0" stop-opacity="0"/></linearGradient><linearGradient id="svg-d1707ab8-f06f-49ee-8736-b2a08a0769d0-E" x1="9.208" x2="11.745" y1="1.956" y2="4.593" gradientUnits="userSpaceOnUse"><stop stop-color="#dcd9e0"/><stop offset="1" stop-color="#dcd9e0" stop-opacity="0"/></linearGradient></defs></svg>